<?xml version="1.0" standalone="no"?>
<!DOCTYPE svg PUBLIC "-//W3C//DTD SVG 20010904//EN"
 "http://www.w3.org/TR/2001/REC-SVG-20010904/DTD/svg10.dtd">
<svg version="1.0" xmlns="http://www.w3.org/2000/svg"
 width="98.000000pt" height="58.000000pt" viewBox="0 0 98.000000 58.000000"
 preserveAspectRatio="xMidYMid meet">

<g transform="translate(0.000000,58.000000) scale(0.100000,-0.100000)"
fill="#000000" stroke="none">
<path d="M30 514 c0 -3 80 -110 178 -237 l177 -232 3 63 c3 71 8 63 -125 235
l-83 107 73 0 c62 0 77 -3 93 -21 22 -24 10 -52 -25 -57 -27 -4 -27 -6 7 -48
23 -29 33 -34 70 -34 l42 0 0 70 c0 77 -15 118 -52 144 -18 13 -54 16 -190 16
-93 0 -168 -3 -168 -6z"/>
<path d="M130 266 c0 -67 0 -68 61 -147 l61 -79 49 0 c27 0 49 2 49 4 0 2 -49
68 -110 146 l-110 143 0 -67z"/>
<path d="M442 110 c0 -14 2 -19 5 -12 2 6 2 18 0 25 -3 6 -5 1 -5 -13z"/>
<path d="M500 115 c-7 -9 -11 -17 -9 -20 3 -2 10 5 17 15 14 24 10 26 -8 5z"/>
<path d="M534 110 c0 -13 4 -16 10 -10 7 7 7 13 0 20 -6 6 -10 3 -10 -10z"/>
</g>
</svg>
