<svg width="30" height="34" viewBox="0 0 30 34" fill="none" xmlns="http://www.w3.org/2000/svg">
<path d="M29.4795 8.54719L15.1841 0.81991C15.1276 0.789408 15.0644 0.773437 15.0002 0.773438C14.936 0.773437 14.8728 0.789408 14.8163 0.81991L0.520814 8.54719C0.460268 8.58119 0.409706 8.63048 0.374179 8.69015C0.338652 8.74981 0.319404 8.81775 0.318359 8.88719V25.1145C0.318321 25.1841 0.337116 25.2525 0.372755 25.3124C0.408394 25.3722 0.459552 25.4213 0.520814 25.4545L14.8163 33.1817C14.8728 33.2122 14.936 33.2282 15.0002 33.2281C15.0641 33.2262 15.1269 33.2103 15.1841 33.1817L29.4795 25.4545C29.5408 25.4213 29.592 25.3722 29.6276 25.3124C29.6632 25.2525 29.682 25.1841 29.682 25.1145V8.88719C29.6808 8.81778 29.6615 8.74988 29.626 8.69024C29.5905 8.63059 29.54 8.58128 29.4795 8.54719ZM6.37268 12.3903L9.33222 13.9899V18.9701L8.16811 17.3196C8.12013 17.2516 8.0515 17.201 7.97242 17.1751C7.89334 17.1493 7.80804 17.1497 7.7292 17.1762L6.37268 17.6337V12.3903ZM28.4831 8.88719L15.0002 16.1752L10.5315 13.7596L24.014 6.47164L28.4831 8.88719ZM23.2015 6.03234L9.71936 13.3203L6.79922 11.742L20.2818 4.45405L23.2015 6.03234ZM15.0002 1.59921L19.4689 4.01475L5.98631 11.3027L1.51725 8.88719L15.0002 1.59921ZM1.09109 9.53512L5.59995 11.9723V18.1715C5.59992 18.2329 5.6145 18.2934 5.64249 18.348C5.67049 18.4026 5.71109 18.4498 5.76094 18.4855C5.81078 18.5213 5.86844 18.5448 5.92913 18.5538C5.98982 18.5629 6.05181 18.5574 6.10995 18.5378L7.70293 18.0007L9.40293 20.4109C9.45023 20.4779 9.51762 20.5281 9.59536 20.5543C9.6731 20.5804 9.75715 20.5812 9.83534 20.5564C9.91353 20.5316 9.9818 20.4826 10.0303 20.4164C10.0787 20.3502 10.1049 20.2703 10.105 20.1883V14.4076L14.6138 16.8447V32.1938L1.09109 24.8838V9.53512ZM15.3865 32.1938V16.8447L28.9093 9.5355V24.8842L15.3865 32.1938Z" fill="#115F85" stroke="#115F85" stroke-width="0.5"/>
</svg>
