<svg width="49" height="49" viewBox="0 0 49 49" fill="none" xmlns="http://www.w3.org/2000/svg">
<rect width="49" height="49" rx="24.5" fill="#0A5275"/>
<path d="M33.6454 18.1719C28.2377 28.4281 21.2973 28.4185 15.8896 18.1719" stroke="white" stroke-width="1.5" stroke-linecap="round" stroke-linejoin="round"/>
<path d="M15.1191 20.0745V29.7138C15.1191 30.7365 15.5254 31.7171 16.2485 32.4402C16.9716 33.1633 17.9523 33.5696 18.9749 33.5696H30.5421C31.5647 33.5696 32.5454 33.1633 33.2685 32.4402C33.9916 31.7171 34.3978 30.7365 34.3978 29.7138V20.0745C34.3978 19.0519 33.9916 18.0711 33.2685 17.348C32.5454 16.6249 31.5647 16.2188 30.5421 16.2188H18.9749C17.9523 16.2188 16.9716 16.6249 16.2485 17.348C15.5254 18.0711 15.1191 19.0519 15.1191 20.0745Z" stroke="white" stroke-width="1.5" stroke-linecap="round" stroke-linejoin="round"/>
</svg>
