<svg width="49" height="49" viewBox="0 0 49 49" fill="none" xmlns="http://www.w3.org/2000/svg">
<rect width="49" height="49" rx="24.5" fill="#0A5275"/>
<path d="M28.4087 27.5875L28.9118 27.0873L27.7435 25.9124L27.2405 26.4127L28.4087 27.5875ZM30.6012 26.8778L32.7114 28.0249L33.5026 26.5694L31.3925 25.4223L30.6012 26.8778ZM33.1176 30.3048L31.5485 31.865L32.7167 33.0398L34.2857 31.4797L33.1176 30.3048ZM30.5925 32.3673C28.9911 32.5165 24.8478 32.3835 20.362 27.9231L19.1938 29.0979C24.089 33.9654 28.7482 34.2031 30.7462 34.0169L30.5925 32.3673ZM20.362 27.9231C16.086 23.6714 15.3777 20.0954 15.2895 18.544L13.6354 18.638C13.7464 20.5906 14.6234 24.5536 19.1938 29.0979L20.362 27.9231ZM21.881 21.0969L22.1978 20.7819L21.0297 19.6071L20.7129 19.9221L21.881 21.0969ZM22.4499 16.7668L21.0572 14.9064L19.7309 15.8992L21.1236 17.7597L22.4499 16.7668ZM16.373 14.5014L14.6393 16.2252L15.8075 17.4001L17.5411 15.6763L16.373 14.5014ZM21.2969 20.5095C20.7129 19.9221 20.7121 19.9228 20.7113 19.9236C20.711 19.9239 20.7102 19.9247 20.7097 19.9252C20.7086 19.9263 20.7075 19.9274 20.7064 19.9286C20.7041 19.9309 20.7018 19.9332 20.6994 19.9357C20.6946 19.9407 20.6896 19.946 20.6843 19.9518C20.6736 19.9634 20.6619 19.9766 20.6494 19.9916C20.6243 20.0215 20.596 20.0582 20.5661 20.1023C20.5064 20.1905 20.4412 20.3072 20.3859 20.4539C20.2731 20.7533 20.2127 21.1479 20.2885 21.6366C20.4367 22.5923 21.0949 23.8547 22.781 25.5312L23.9491 24.3563C22.3713 22.7874 21.9954 21.8327 21.9256 21.3826C21.8924 21.1684 21.9268 21.063 21.9363 21.038C21.9421 21.0226 21.9448 21.021 21.9378 21.0316C21.9342 21.0367 21.9284 21.0448 21.9192 21.0557C21.9147 21.0611 21.9093 21.0673 21.903 21.0741C21.8998 21.0776 21.8965 21.0812 21.8927 21.085C21.8909 21.0869 21.8891 21.0888 21.8871 21.0908C21.8861 21.0918 21.8851 21.0928 21.8841 21.0938C21.8837 21.0943 21.8829 21.0951 21.8826 21.0954C21.8818 21.0961 21.881 21.0969 21.2969 20.5095ZM22.781 25.5312C24.4675 27.2081 25.7359 27.8608 26.6931 28.0077C27.1823 28.0827 27.5767 28.0228 27.8759 27.9114C28.0226 27.8567 28.1395 27.7923 28.2278 27.7331C28.272 27.7035 28.3089 27.6753 28.3388 27.6505C28.3539 27.6381 28.3671 27.6265 28.3787 27.6159C28.3846 27.6106 28.39 27.6056 28.395 27.6009C28.3975 27.5985 28.3998 27.5961 28.4021 27.5939C28.4032 27.5928 28.4043 27.5917 28.4054 27.5906C28.406 27.5901 28.4069 27.5893 28.4071 27.5891C28.4079 27.5883 28.4087 27.5875 27.8246 27C27.2405 26.4127 27.2413 26.4119 27.2421 26.4111C27.2423 26.4109 27.2431 26.4101 27.2436 26.4096C27.2446 26.4086 27.2456 26.4076 27.2466 26.4066C27.2487 26.4047 27.2506 26.4028 27.2525 26.401C27.2563 26.3973 27.26 26.394 27.2634 26.3908C27.2702 26.3846 27.2764 26.3792 27.2819 26.3748C27.2928 26.3657 27.3008 26.36 27.3058 26.3566C27.3161 26.3497 27.314 26.3528 27.2976 26.3589C27.2706 26.3689 27.1622 26.4035 26.9444 26.37C26.4879 26.3001 25.5264 25.9246 23.9491 24.3563L22.781 25.5312ZM21.0572 14.9064C19.9314 13.4025 17.7175 13.1645 16.373 14.5014L17.5411 15.6763C18.1284 15.0923 19.1713 15.1518 19.7309 15.8992L21.0572 14.9064ZM15.2895 18.544C15.2678 18.1617 15.4431 17.7624 15.8075 17.4001L14.6393 16.2252C14.0459 16.8153 13.5793 17.6507 13.6354 18.638L15.2895 18.544ZM31.5485 31.865C31.245 32.1668 30.9196 32.3368 30.5925 32.3673L30.7462 34.0169C31.5576 33.9412 32.2224 33.5313 32.7167 33.0398L31.5485 31.865ZM22.1978 20.7819C23.2852 19.7007 23.366 17.9905 22.4499 16.7668L21.1236 17.7597C21.5693 18.355 21.503 19.1364 21.0297 19.6071L22.1978 20.7819ZM32.7114 28.0249C33.6146 28.516 33.7554 29.6706 33.1176 30.3048L34.2857 31.4797C35.7661 30.0077 35.3096 27.5516 33.5026 26.5694L32.7114 28.0249ZM28.9118 27.0873C29.3359 26.6656 30.0186 26.5611 30.6012 26.8778L31.3925 25.4223C30.1956 24.7716 28.7103 24.9513 27.7435 25.9124L28.9118 27.0873Z" fill="white"/>
</svg>
