<svg width="29" height="37" viewBox="0 0 29 37" fill="none" xmlns="http://www.w3.org/2000/svg">
<path d="M16.7173 5.90725C12.1551 4.75924 7.44769 7.31125 6.22507 11.5966C5.63276 13.6725 5.93678 15.8408 7.08094 17.702C8.2251 19.5632 10.0725 20.8946 12.2828 21.4508C13.0209 21.6365 13.7699 21.7285 14.514 21.7285C15.9985 21.7285 17.4635 21.3627 18.7835 20.647C20.7652 19.5724 22.1828 17.8374 22.775 15.7615C23.9975 11.4762 21.2801 7.05559 16.7173 5.90725ZM21.6501 15.4785C21.1384 17.2722 19.9135 18.7714 18.2011 19.6999C16.4887 20.6284 14.4938 20.875 12.584 20.3944C10.6742 19.9138 9.0779 18.7634 8.08935 17.1552C7.10073 15.547 6.83813 13.6734 7.34987 11.8797C8.23499 8.77711 11.2335 6.72603 14.5017 6.72603C15.1481 6.72628 15.7917 6.80619 16.4159 6.96372C20.3584 7.95593 22.7065 11.7756 21.6501 15.4785ZM26.5165 10.9703C26.3858 10.7853 26.334 10.6038 26.3487 10.3822L26.4739 8.4952C26.5295 7.65775 26.067 6.90541 25.267 6.5319L23.4646 5.69035C23.2528 5.59143 23.1113 5.45854 23.0059 5.25962L22.11 3.56688C21.7123 2.81556 20.9125 2.38087 20.0195 2.4333L18.0105 2.55094C17.7744 2.56503 17.5813 2.51615 17.3841 2.39324L15.7069 1.34798C14.9624 0.88404 14.0375 0.883971 13.2932 1.34798L11.6159 2.39331C11.4188 2.51615 11.2262 2.56503 10.9895 2.55094L8.98052 2.43337C8.08972 2.38135 7.28771 2.81549 6.89002 3.56681L5.99398 5.25969C5.88866 5.45861 5.74717 5.5915 5.53537 5.69041L3.73288 6.53197C2.93292 6.90547 2.47045 7.65782 2.52598 8.49534L2.65124 10.3822C2.66595 10.6039 2.6142 10.7853 2.48341 10.9704L1.37054 12.5455C0.876486 13.2448 0.876486 14.1135 1.37054 14.8126L2.48348 16.3879C2.61427 16.573 2.66602 16.7544 2.65132 16.9762L2.52613 18.863C2.47045 19.7005 2.93299 20.4528 3.73296 20.8263L5.53544 21.6679C5.74725 21.7668 5.88874 21.8997 5.99406 22.0986L6.8901 23.7915C7.01361 24.0247 7.17599 24.2273 7.3677 24.3945L3.49328 32.198C3.44183 32.3017 3.42632 32.418 3.44893 32.5304C3.47154 32.6429 3.53113 32.7458 3.61931 32.8248C3.70749 32.9038 3.81982 32.9548 3.94049 32.9706C4.06115 32.9865 4.18407 32.9664 4.29194 32.9132L9.18322 30.4974L10.3569 35.5693C10.3827 35.6811 10.4453 35.7825 10.5358 35.8592C10.6263 35.9359 10.7401 35.9839 10.8613 35.9966C10.9824 36.0093 11.1047 35.986 11.2109 35.93C11.3172 35.8739 11.4021 35.788 11.4536 35.6842L14.5 29.5482L17.5464 35.6842C17.5979 35.7879 17.6828 35.8739 17.7891 35.9299C17.8953 35.9859 18.0176 36.0093 18.1387 35.9966C18.2599 35.9839 18.3737 35.9358 18.4642 35.8591C18.5547 35.7825 18.6173 35.681 18.6431 35.5692L19.8168 30.4973L24.7081 32.9131C24.8159 32.9663 24.9389 32.9865 25.0596 32.9706C25.1802 32.9548 25.2926 32.9038 25.3808 32.8248C25.469 32.7459 25.5286 32.6429 25.5512 32.5304C25.5738 32.4179 25.5582 32.3017 25.5067 32.1979L21.6321 24.3939C21.8239 24.227 21.9865 24.0246 22.1099 23.7914L23.0059 22.0985C23.1113 21.8996 23.2528 21.7667 23.4646 21.6678L25.267 20.8262C26.067 20.4527 26.5295 19.7003 26.4739 18.8628L26.3487 16.976C26.334 16.7543 26.3858 16.5728 26.5166 16.3877L27.6295 14.8126C28.1235 14.1133 28.1235 13.2446 27.6295 12.5455L26.5165 10.9703ZM11.1281 33.7518L10.1587 29.5625C10.1396 29.4802 10.1006 29.4031 10.0446 29.3372C9.98856 29.2714 9.91711 29.2186 9.83579 29.183C9.75447 29.1474 9.66548 29.1299 9.57578 29.1319C9.48607 29.1339 9.39808 29.1554 9.31867 29.1946L5.27852 31.19L8.40691 24.889C8.59156 24.923 8.78349 24.9364 8.98052 24.9248L10.9895 24.8072C11.2261 24.7935 11.4188 24.842 11.6159 24.9649L13.2931 26.0101C13.6654 26.2421 14.0827 26.3581 14.5 26.3581C14.6034 26.3581 14.7069 26.3508 14.8097 26.3366L11.1281 33.7518ZM23.7215 31.1901L19.6814 29.1947C19.602 29.1555 19.514 29.134 19.4243 29.132C19.3346 29.13 19.2456 29.1475 19.1643 29.1831C19.083 29.2187 19.0115 29.2715 18.9555 29.3373C18.8995 29.4032 18.8605 29.4803 18.8414 29.5626L17.872 33.7519L15.1425 28.2544L16.503 25.5141L17.3842 24.9649C17.5812 24.8422 17.7739 24.7929 18.0104 24.8073L20.0196 24.9249C20.2115 24.9358 20.4041 24.9235 20.5927 24.8884L23.7215 31.1901ZM26.6591 14.2079L25.5463 15.7831C25.2734 16.1691 25.1558 16.5817 25.1865 17.0442L25.3117 18.931C25.338 19.3277 25.1276 19.6701 24.7487 19.8469L22.9462 20.6885C22.5045 20.8948 22.183 21.1968 21.9632 21.6116L21.0671 23.3045C20.8788 23.6603 20.5145 23.8586 20.092 23.8333L18.0829 23.7157C17.5902 23.6864 17.1512 23.7974 16.7404 24.0536L15.0631 25.0988C14.7105 25.3185 14.2897 25.3186 13.937 25.0988L12.2598 24.0536C11.8911 23.8238 11.4999 23.7112 11.0677 23.7112C11.018 23.7112 10.9679 23.7126 10.9171 23.7156L8.9081 23.8333C8.48573 23.8584 8.12116 23.6603 7.93287 23.3044L7.03676 21.6116C6.81709 21.1967 6.49561 20.8948 6.05388 20.6884L4.25139 19.8468C3.87248 19.6699 3.66199 19.3275 3.68841 18.9309L3.8136 17.044C3.84424 16.5816 3.72662 16.1691 3.4539 15.7831L2.34097 14.2078C2.10697 13.8767 2.10697 13.4814 2.34097 13.1502L3.4539 11.5749C3.72662 11.1889 3.84424 10.7764 3.8136 10.3139L3.68834 8.42712C3.66207 8.03044 3.87248 7.68803 4.25139 7.51119L6.05388 6.66957C6.49561 6.46327 6.81709 6.16133 7.03683 5.74647L7.93294 4.05352C8.12131 3.69778 8.48552 3.50064 8.9081 3.52484L10.9171 3.64241C11.4095 3.67126 11.8486 3.56073 12.2597 3.30459L13.9371 2.25926C14.2896 2.03949 14.7106 2.03949 15.0631 2.25926L16.7404 3.30452C17.1514 3.56066 17.5903 3.67174 18.083 3.64241L20.092 3.52477C20.5148 3.49968 20.8788 3.69778 21.0672 4.05359L21.9633 5.74647C22.183 6.16133 22.5045 6.46327 22.9462 6.66964L24.7487 7.51126C25.1276 7.6881 25.3381 8.03051 25.3117 8.42705L25.1865 10.314C25.1558 10.7765 25.2734 11.189 25.5462 11.5749L26.6591 13.1502C26.893 13.4814 26.893 13.8767 26.6591 14.2079ZM15.027 8.30209C14.98 8.20812 14.9054 8.12866 14.8121 8.073C14.7188 8.01734 14.6105 7.98778 14.5 7.98778C14.3895 7.98778 14.2812 8.01734 14.1879 8.073C14.0946 8.12866 14.02 8.20812 13.973 8.30209L12.4257 11.3953L8.8153 11.8215C8.70561 11.8345 8.60211 11.8765 8.51691 11.9426C8.43172 12.0088 8.36833 12.0964 8.33418 12.1951C8.30002 12.2939 8.29651 12.3997 8.32404 12.5003C8.35158 12.6008 8.40902 12.692 8.48966 12.763L11.1437 15.101L10.4597 18.4576C10.4389 18.5596 10.4494 18.665 10.4901 18.7616C10.5307 18.8582 10.5998 18.9419 10.6893 19.0029C10.7787 19.064 10.8848 19.0998 10.9952 19.1063C11.1056 19.1128 11.2156 19.0896 11.3124 19.0395L14.5 17.3911L17.6877 19.0393C17.7845 19.0894 17.8946 19.1126 18.0049 19.1061C18.1152 19.0996 18.2213 19.0637 18.3107 19.0027C18.4002 18.9417 18.4693 18.858 18.51 18.7614C18.5506 18.6649 18.5612 18.5594 18.5404 18.4575L17.8563 15.1008L20.5104 12.7628C20.591 12.6918 20.6485 12.6007 20.676 12.5001C20.7036 12.3996 20.7 12.2937 20.6659 12.195C20.6317 12.0962 20.5684 12.0087 20.4832 11.9425C20.398 11.8763 20.2945 11.8343 20.1848 11.8214L16.5744 11.3951L15.027 8.30209ZM16.8259 14.5091C16.7543 14.5722 16.7008 14.6513 16.6704 14.739C16.6401 14.8267 16.6338 14.9202 16.6523 15.0108L17.1636 17.5199L14.7808 16.2879C14.6948 16.2434 14.5982 16.2201 14.5 16.2201C14.4018 16.2201 14.3052 16.2434 14.2192 16.2879L11.8364 17.5199L12.3477 15.0108C12.3662 14.9202 12.3599 14.8267 12.3296 14.739C12.2992 14.6513 12.2458 14.5722 12.1741 14.5091L10.1902 12.7615L12.889 12.4429C12.9864 12.4314 13.0792 12.3969 13.1586 12.3427C13.238 12.2885 13.3016 12.2163 13.3433 12.1328L14.5 9.82059L15.6567 12.1327C15.6984 12.2162 15.762 12.2884 15.8414 12.3426C15.9208 12.3968 16.0136 12.4313 16.111 12.4428L18.8098 12.7614L16.8259 14.5091Z" fill="#115F85" stroke="#115F85" stroke-width="0.5"/>
</svg>
