<svg width="37" height="37" viewBox="0 0 37 37" fill="none" xmlns="http://www.w3.org/2000/svg">
<path d="M18.5 1C8.85046 1 1 8.85046 1 18.5C1 22.4946 2.38113 26.4013 4.8891 29.5007C5.13226 29.8012 5.57317 29.8477 5.87354 29.6044C6.17405 29.3613 6.22054 28.9205 5.97731 28.6199C3.67046 25.7691 2.4 22.175 2.4 18.5C2.4 9.62244 9.62244 2.4 18.5 2.4C27.3776 2.4 34.6 9.62244 34.6 18.5C34.6 27.3776 27.3776 34.6 18.5 34.6C14.825 34.6 11.2311 33.3295 8.38021 31.0227C8.07971 30.7797 7.63906 30.826 7.39577 31.1266C7.15262 31.4271 7.1991 31.8678 7.49968 32.1111C10.5989 34.6189 14.5055 36 18.5 36C28.1495 36 36 28.1495 36 18.5C36 8.85046 28.1495 1 18.5 1Z" fill="#115F85" stroke="#115F85" stroke-width="0.5"/>
<path d="M25.6234 8.65281C25.8318 8.32729 25.7368 7.8943 25.4113 7.68587C23.3492 6.36578 20.9595 5.66797 18.5003 5.66797C11.4239 5.66797 5.66699 11.4249 5.66699 18.5013C5.66699 25.5776 11.4239 31.3346 18.5003 31.3346C25.5767 31.3346 31.3336 25.5776 31.3336 18.5013C31.3336 15.5092 30.2816 12.5965 28.3714 10.2999C28.1241 10.0026 27.6828 9.9621 27.3856 10.2094C27.0883 10.4565 27.0478 10.8979 27.2951 11.1952C28.9965 13.241 29.9336 15.8356 29.9336 18.5013C29.9336 24.8057 24.8047 29.9346 18.5003 29.9346C12.1959 29.9346 7.06699 24.8057 7.06699 18.5013C7.06699 12.1969 12.1959 7.06797 18.5003 7.06797C20.6915 7.06797 22.8201 7.68936 24.6564 8.865C24.9819 9.07343 25.4148 8.97854 25.6234 8.65281Z" fill="#115F85" stroke="#115F85" stroke-width="0.5"/>
<path d="M20.6 15.6987C20.6 16.0853 20.9134 16.3987 21.3 16.3987C21.6866 16.3987 22 16.0853 22 15.6987C22 14.0085 20.7956 12.5944 19.2 12.2692V11.032C19.2 10.6455 18.8866 10.332 18.5 10.332C18.1134 10.332 17.8 10.6455 17.8 11.032V12.2692C16.2044 12.5944 15 14.0085 15 15.6987C15 17.389 16.2044 18.8031 17.8 19.1282V23.2783C16.9853 22.9894 16.4 22.2113 16.4 21.2987C16.4 20.9121 16.0866 20.5987 15.7 20.5987C15.3134 20.5987 15 20.9121 15 21.2987C15 22.989 16.2044 24.4031 17.8 24.7282V25.9654C17.8 26.352 18.1134 26.6654 18.5 26.6654C18.8866 26.6654 19.2 26.352 19.2 25.9654V24.7282C20.7956 24.4031 22 22.989 22 21.2987C22 19.6085 20.7956 18.1944 19.2 17.8692V13.7191C20.0147 14.0081 20.6 14.7861 20.6 15.6987ZM17.8 17.6783C16.9853 17.3894 16.4 16.6113 16.4 15.6987C16.4 14.7861 16.9853 14.0081 17.8 13.7191V17.6783ZM20.6 21.2987C20.6 22.2113 20.0147 22.9894 19.2 23.2783V19.3192C20.0147 19.6081 20.6 20.3861 20.6 21.2987Z" fill="#115F85" stroke="#115F85" stroke-width="0.5"/>
</svg>
