<svg width="31" height="33" viewBox="0 0 31 33" fill="none" xmlns="http://www.w3.org/2000/svg">
<path d="M29.7356 21.5721C29.7344 21.4604 29.6989 21.3518 29.6341 21.2609C29.5693 21.17 29.4782 21.1011 29.3731 21.0635L24.3506 19.2664C24.2314 19.2237 24.1011 19.2237 23.982 19.2664L18.9584 21.0635C18.8532 21.1011 18.7621 21.17 18.6973 21.2609C18.6325 21.3518 18.5971 21.4604 18.5958 21.5721L18.5449 26.2019C18.5488 29.2906 21.3832 31.1002 24.1663 31.8128C26.952 31.0975 29.7838 29.2917 29.787 26.1964L29.7356 21.5721ZM24.1663 30.6972C22.8842 30.3406 21.7053 29.6846 20.7264 28.7831C20.3799 28.4499 20.1048 28.0498 19.9177 27.607C19.7307 27.1642 19.6355 26.688 19.6381 26.2074L19.6857 21.9647L24.1663 20.3624L28.6463 21.9647L28.6933 26.2019C28.6742 28.7033 26.3598 29.9928 24.1663 30.6972Z" fill="#115F85" stroke="#115F85" stroke-width="0.5"/>
<path d="M17.4355 28.8475L15.021 30.2968V17.3041L26.6421 10.3314V18.5428C26.6421 18.6878 26.6997 18.8269 26.8023 18.9295C26.9048 19.032 27.0439 19.0896 27.189 19.0896C27.334 19.0896 27.4731 19.032 27.5757 18.9295C27.6782 18.8269 27.7359 18.6878 27.7359 18.5428C27.738 18.5264 27.732 9.37932 27.738 9.36455C27.7359 9.27055 27.7106 9.17853 27.6643 9.09667C27.618 9.01482 27.5522 8.94565 27.4728 8.89533L14.7558 1.26533C14.6707 1.2144 14.5733 1.1875 14.4742 1.1875C14.375 1.1875 14.2776 1.2144 14.1925 1.26533L1.47659 8.89533C1.39434 8.9465 1.3268 9.01816 1.28059 9.10329C1.23438 9.18843 1.21109 9.28411 1.213 9.38096V23.6342C1.21307 23.7286 1.23759 23.8214 1.28417 23.9035C1.33074 23.9856 1.39779 24.0543 1.47878 24.1028L14.1936 31.7318C14.2786 31.7828 14.3759 31.8097 14.475 31.8097C14.5741 31.8097 14.6714 31.7828 14.7563 31.7318L17.9993 29.7849C18.1208 29.7088 18.2076 29.5882 18.241 29.4488C18.2744 29.3094 18.2518 29.1625 18.178 29.0396C18.1041 28.9168 17.985 28.8278 17.8463 28.7919C17.7075 28.756 17.5596 28.7759 17.4355 28.8475ZM13.9273 30.2968L2.3062 23.3241V10.3314L13.9273 17.3041V30.2968ZM14.4742 16.3569L2.82026 9.36455L14.4742 2.3722L26.1281 9.36455L14.4742 16.3569Z" fill="#115F85" stroke="#115F85" stroke-width="0.5"/>
<path d="M25.4541 24.0202L23.6073 25.867L22.8777 25.1374C22.8273 25.0852 22.7669 25.0435 22.7002 25.0149C22.6335 24.9862 22.5617 24.9711 22.4891 24.9705C22.4165 24.9699 22.3445 24.9837 22.2773 25.0112C22.2101 25.0387 22.149 25.0793 22.0977 25.1306C22.0463 25.182 22.0057 25.243 21.9782 25.3103C21.9507 25.3775 21.9369 25.4495 21.9375 25.5221C21.9382 25.5947 21.9532 25.6665 21.9819 25.7332C22.0106 25.7999 22.0522 25.8603 22.1045 25.9107L23.2206 27.0263C23.3232 27.1288 23.4623 27.1864 23.6073 27.1864C23.7523 27.1864 23.8914 27.1288 23.9939 27.0263L26.2273 24.794C26.327 24.6908 26.3821 24.5527 26.3808 24.4093C26.3796 24.2659 26.3221 24.1288 26.2207 24.0274C26.1193 23.926 25.9821 23.8685 25.8387 23.8672C25.6953 23.866 25.5572 23.9205 25.4541 24.0202Z" fill="#115F85"/>
</svg>
